<?xml version="1.0" encoding="UTF-8"?>
<svg id="Layer_1" data-name="Layer 1" xmlns="http://www.w3.org/2000/svg" viewBox="0 0 2086.34 1928.01">
  <defs>
    <style>
      .cls-1 {
        fill: #939393;
      }
    </style>
  </defs>
  <g>
    <path d="M1214.76,829.5l-124.75-15.71c-5.54-14.25-10.83-27.37-10.72-41.51l.34-41.96c.06-7.79-2.18-14.23-8.62-18.91l-132.93-96.55-335.85-96.09-.46-100.54c-.02-4.13,2.79-9.93,5.12-13.48l104.32-121.54c13.75-16.02,26.47-30.12,43.8-42.34l51.58-36.36c20.53-14.47,41.9-24.68,64.83-35.74l261.51-126.16c2.85-1.37,7.77,1.54,9.23,3.81l91.99,143.4,72.09.09c9.96.01,16.28,2.68,23.33,9.38l98.14,93.23,39.59,109.2c1.83,4.19,5.1,10.18,9.28,12.7l155.12,93.48-171.32,337.5-70.41-62.63-101.85,127.12c-.98,1.22-3.89,3.18-5.11,3.2-1.64.03-4.34-2.38-5.51-4.09l-48.69-71.23c-2.85-4.18-7.99-7.5-14.05-8.26ZM948.84,417.94l5.52-.72c.64-.08.63-1.28,1-2.7l-.19-33.16-11.15.13-6.75,21.89-6.82-21.75c-2.37-.54-8.79-.32-11.19.53l.08,33.6c0,1.38,5.66,2.19,6.37,1.54l1.53-21.29,5.97,19.39c.46,1.5,5.06,3.58,6.03,2.55s2.01-2.99,2.64-4.93l5.65-17.3,1.32,22.19ZM997.32,398.61c-.31-11.21-7.6-18.35-18.01-18.48s-17.84,7.1-18.23,18.39c-.41,11.98,7,20.16,18.21,20.13s18.35-8.19,18.02-20.04ZM1032.69,415.86v-32.7c0-1.36-6-2.99-6.16-1.59l-.54,4.83-2.01,15.24-12.16-18.63c-1.27-1.94-8.4-2.49-8.41-.3l-.18,32.98c0,1.42,5.75,2.23,6.53,1.65l1.22-21.33,13.3,20.27c1.18,1.81,8.41,1.62,8.41-.43ZM1056.09,416.11l.77-28.28c6.15-.88,11.25.28,11-6.47l-29.92-.23c.71,4.12.79,5.93,1.97,5.96l8.52.16,1.08,29.8c.12.61,6.55.39,6.58-.93ZM1098.12,407.06c-1.22,4.59-10.08,6.36-13.5,4.05s-5.72-7.74-5.81-12.88c-.08-4.32,3.41-9.75,7.26-11.44,8.3-3.64,10.73,8.85,18.11,3.99,1.3-.85-.9-5.32-2.22-6.44-7.26-6.18-20.53-5.72-26.52,1.94-5.8,7.42-5.68,19.33.17,26.2,6.38,7.48,17.87,7.35,26.74,2.97,4.15-2.05,4.69-11.76,2.49-16.58-3.92-1.57-11.1-1.35-15.97,1.72l9.25,6.46ZM1147.49,397.61c-.8-12.17-9.46-18.19-20.11-17.39-9.12.69-15.67,7.76-16.06,18.13-.45,12.01,6.86,20.26,18.05,20.31s18.97-8.04,18.12-21.06ZM1182.91,416.47c.12,1.39,6.31.98,6.31-.74l.03-34.16-11.22-.14-6.78,21.94-6.79-21.84h-11.16s.11,34.13.11,34.13c0,2.09,6.33,2.34,6.45.52l1.32-19.96,6.04,19.14c.49,1.54,4.87,3.53,5.95,2.63s2.1-2.84,2.73-4.81l5.51-17.24,1.5,20.53ZM1223.99,396.7l-13.9-1.85c-1.68-.22-4.59-.96-5.83-1.34s.45-5.79,1.76-5.85l14.36-.71c.99-.05,3.14-1.22,3.91-1.85s-1.42-4.22-2.67-4.21l-24.8.16-.03,36.71,25.11.22c1.46.01,4.41-3.84,3.41-4.49s-3.54-1.67-4.81-1.73l-14.38-.69c-1.8-.09-3.35-6.94-1.73-7.64,11.75-5.07,17.66,2.28,19.58-6.71ZM1264.08,417.13l-9.5-15.06c3.9-3.31,6.95-7.1,7.36-10.41,1.76-14.2-21.95-10.9-30.51-10.18v34.02c0,1.61,5.93,3.66,6.15,2.16l.82-5.56c.52-3.55,1.46-7.51,3.29-10.9,13.21,7.88,9.01,20.07,22.39,15.92ZM1285.4,401.09l11.29-19.19c-7-3.09-9.03,1.52-12.16,6.56l-3.27,5.28c-2.33,3.76-6.94-19.2-16.99-11.56l10.82,17.74c3.17,5.2.47,17.51,2.79,17.55l5.19.1c2.58.05-.39-11.86,2.33-16.48ZM1006.9,459.27c-.26-5.15,3.46-11.32,6.98-12.55,7.39-2.57,11.18,9.97,16.38,4.25.82-.91-.36-4.76-1.3-5.79-4.41-4.87-13.15-6.4-20.28-3.32-4.86,2.1-9.08,9.48-9.4,16.65-.35,7.98,3.78,15.98,9.43,18.43,7.09,3.07,15.54,1.55,20.16-3.85,1.08-1.26,2.27-5.69,1.46-6.93-.61-.93-4.03-2-4.74-1.14l-3.37,4.06c-1.75,2.14-7.38,3.68-9.82,2.28-2.66-1.52-5.24-7.01-5.49-12.09ZM1072.76,457.35c-.84-11.96-9.17-17.55-19.22-17.2-8.81.31-15.61,6.27-16.69,16.23-1.34,12.39,5.46,21.61,16.53,22.23,11.84.66,20.34-7.45,19.37-21.26ZM1100.95,442.95l-.15,21.73c-.03,3.87-3.9,7.65-7.51,7.63-3.05-.01-7.1-4.12-7.1-7.46v-22.91s-7.04-.51-7.04-.51c-.33,10.02-1.93,21.7,1.75,31.11,3.51,8.96,23.27,8.34,25.69-.64,2.63-9.74,1.66-18.9,1.68-30.11-1.14-.84-7.3-.53-7.32,1.16ZM1145.74,476.13v-33.34c.01-1.83-6.3-1.82-6.43-.04l-1.39,20.21-13.32-20.37c-1.11-1.7-7.42-1.71-8.18-.23l.06,34.88c2.26.3,6.19.12,6.33-1.28l1.92-18.59,12.45,18.47c1.21,1.8,8.56,2.56,8.56.29ZM1197.15,477.75l4.92-.64c1.96-.25-.81-11.64,2.75-17.52l10.82-17.9c-2.61-.57-7.77-.58-8.84,1.12l-7.55,12.08-8.37-13.73-39.92.05c-.45,7,4.59,5.7,10.95,6.57l.65,28.29c.05,1.98,6.93,1.92,6.96-.02l.52-27.36,14.18-4.35,9.91,16.39c2.66,4.4-.31,17.46,3.01,17.03Z"/>
    <path d="M556.52,445.33l-.24,121.16c0,4.68,2.08,9.6,7.14,11.31l335.63,113.67c1.4.48,3.77,5.68,2.78,6.98l-301.97,392.55-186.36-191.08c-4.96-5.11-9.51-7.89-16.43-10.42L31.11,779.38,245.4,97.02l244.95-.22c7.99,0,13.67,1.92,16.92,8.98l45.58,96.36c2.27,4.79,7.65,9.6,12.43,11.87l97.56,46.46c2.77,1.32,4.75,6.38,2.81,9.33l-102.89,156.54c-3.38,5.14-6.22,11.7-6.24,18.99ZM209.77,511.9l-12.52-1.36-.34-27.49c-.02-1.98-7.22-2.19-7.22,0v34.54s24.3.18,24.3.18c1.2,0,2.38-5.17,1.19-5.29l-5.41-.58ZM255.75,497.63c-.77-12.3-9.64-18.12-20.06-17.42s-16.46,8.98-16.12,20.16c.36,11.93,8.74,19.09,20.2,18.2,9.67-.76,16.74-8.86,15.99-20.93ZM283.75,482.79l-.03,22.11c0,3.4-4.5,7.97-7.58,7.61-2.42-.28-6.89-4.61-6.93-7.15l-.34-22.43c-.03-1.65-6.13-1.9-6.95-1.08-.38,9.19-1.66,21.16,1.65,30.39,3.1,8.65,21.38,9.2,25.4.7,3.73-7.89,2.35-21.84,2.14-29.95-.06-2.23-7.34-2.08-7.35-.2ZM323.21,515.26c10.5-6.66,9.77-26.5-.43-32.18-6.71-3.74-16.75-2.3-23.65-1.49l.16,35.95c7.55.31,17.16,1.99,23.91-2.29ZM371.39,498.66c-.31-12.16-8.67-19.22-19.88-18.49s-17.41,10.19-16.17,22.31c1.15,11.18,9.61,16.93,20.2,16.03,9.88-.83,16.13-8.99,15.85-19.86ZM399.27,487.2l.07,17.98c.01,2.9-4.22,7.35-7.38,7.23s-7.33-4.36-7.35-7.65l-.14-22.15c-.29-1.26-5.7-1.49-6.95-1.01-.43,9.68-1.78,21.5,1.8,30.97,3.17,8.37,21.57,8.51,25.15.43,3.86-8.71,2.43-31.61,1.2-31.62l-5.38-.03c-1.16,0-1.05,3.3-1.04,5.85ZM444.31,516.16v-33.5c0-1.7-6.45-1.68-6.58.16l-1.41,20.14-13.31-20.53c-1.07-1.65-7.57-1.52-8.28,0l.25,33.5c.01,1.88,6.26,1.87,6.43.12l1.77-18.7,12.32,18.36c1.33,1.98,8.81,2.63,8.81.46ZM217.21,559.28c-.25-5.08,3.46-11.34,7.05-12.56,7.79-2.66,12.56,12.55,17.25,1.7-4.82-8-12.37-9.66-21.14-7.04-5.61,1.68-10.42,9.26-10.74,17.21s3.74,15.87,9.45,18.39c6.96,3.07,16.25.65,19.76-3.43,1.26-1.47,3.25-7.12,1.81-7.45l-4.67-1.07c-1.06-.24-1.51,1.51-3.32,4.11-1.84,2.08-7.46,3.81-9.84,2.36-2.62-1.6-5.37-7.19-5.62-12.2ZM283.1,557.36c-.85-11.97-9.13-17.58-19.25-17.18-8.77.35-15.58,6.22-16.65,16.21-1.33,12.41,5.41,21.61,16.63,22.22s20.25-7.44,19.28-21.25ZM311.3,543.01l-.15,21.67c-.03,3.74-3.99,7.7-7.5,7.7-2.99,0-7.11-4.28-7.11-7.56v-22.85s-7.02-.55-7.02-.55c-.34,10.02-1.95,21.73,1.73,31.12,3.51,8.96,23.28,8.34,25.69-.64,2.62-9.75,1.65-18.91,1.68-30.1-1.16-.87-7.31-.6-7.32,1.22ZM356.06,575.73l.02-32.96c0-1.88-6.27-1.85-6.39-.09l-1.41,20.27-13.33-20.37c-1.1-1.67-7.39-1.69-8.18-.29l.07,34.96c2.26.28,6.19.11,6.33-1.29l1.92-18.58,12.39,18.37c1.35,2,8.6,2.89,8.6-.02ZM404.79,561.75c1.62,2.8.95,11.53,1.3,14.58.22,1.92,6.73,1.64,6.86-.33.25-3.7-.01-12.17,1.76-15.21l10.84-18.59c-.52-.88-6.76-1.62-7.72-.15l-8.29,12.76-8.31-13.68-39.93.04c-.5,7.03,4.72,5.97,10.94,6.26l.75,29.92c1.41.45,6.89.03,6.92-1.47l.48-27.11,14.28-4.5,10.13,17.47Z"/>
    <path d="M1782.08,680.52l65.88,33.78,109.55,192.72,24.42,184.99-24.27,70.59,23.04,157.88c6.14,42.09-.39,83.22,1.24,126.11l39.54,107.87-.12,179.16-63.22-17.38-43.38-28.27-27.67-112.81-173.39-91.56-83.49,27.44-44.05-18.99c-1.85-2.9-5.15-7.15-7.25-11.27l-125.44-246.29,15.24-50.98,179.5-158.27-110.16-104.85,239.7-239.96,4.31.1ZM1636.2,1169.27c.99-4.26-1.4-13.17-6.28-13.63-8.23-.78-14.9-.72-21.97-.44l.18,36.21,6.22.04c1.12,0,.71-3.05.91-4.99l.74-6.87c.45-4.18,17.21,2.53,20.19-10.32ZM1674.99,1190.58l-8.81-14.18c2.55-3.01,5.74-6.78,6.94-9.33s-2.01-10.13-4.95-10.84c-6.77-1.63-17.15-1.57-25.41-.87l.05,34.54c0,1.91,6.76,2.27,6.92.58l1.35-14.95c13.68,2.37,11.17,21.9,23.91,15.05ZM1687.59,1154.9h-7.52v36.98h7.52v-36.98ZM1724.1,1190.05v-34.31s-6.04-.19-6.04-.19c-1.13-.04-.38,2.86-.21,4.8l-2.31,15.3-11.31-17.62c-1.43-2.23-9.11-4.19-9.13-1.7l-.28,33.48c-.02,2,6.52,2.1,6.62.34l1.21-19.97,13.21,20.1c1.12,1.7,8.23,1.77,8.23-.23ZM1738.44,1173.31c-.24-5.19,3.52-11.38,7.13-12.59,7.87-2.65,6.96,7.99,16.36,4.24,1.1-.44-.52-4.65-1.32-5.57-4.93-5.69-14.34-6.83-21.72-2.86-4.74,2.55-8.2,10.59-8.07,17.77.13,7.94,5,15.47,10.92,17.21,7.61,2.25,14.69.83,19.67-5.68,1.16-1.52-.07-7.16-1.99-6.97-5.82.58-8.24,11.08-15.15,6.7-2.98-1.89-5.59-7.17-5.83-12.25ZM1788.9,1175.5l6.48-.41c1.13-.07,1.13-5.25,0-5.34l-5.47-.44c-4.83-.39-12.77,2.67-12.94-6.77l16.91-1.87,3.52-1.02c.86-.25-1.25-4.76-2.14-4.75l-25.24.16-.08,36.81,27.57-.04.32-5.8-19.64-.98c-.6-2.33-1.23-8.8.72-8.92l10-.62ZM1593.67,1241.41c1.1,2.79-8.39,5.96-11.57,4.27-4.18-2.23-7.39-7.84-7.22-13.38.13-4.2,3.55-9.97,6.99-11.28,2.61-1,7.94.65,10.43,2.28l4.77,3.13c.93.61,3.83-3.4,3.25-4.67-3.19-6.99-15.22-10-23.54-5.74-6.64,3.4-10.65,12-9.16,21.28,1.76,10.95,11.15,16.99,22.55,14.86,3.85-.72,8.75-2.35,10.62-4.58s1.98-10.62.52-13.55c-1.79-3.58-12.09-2.75-16.07.57l8.44,6.81ZM1636.3,1230.21l-14.47-1.08c-1.8-.13-5.55-2.03-5.42-3.71s3.89-4.36,5.54-4.36l14.67-.04-.69-6.14-26.85.23.04,36.63h27.58c.22-1.65.18-5.61-1.07-5.72-3.41-.31-11.75-.44-15.75-.58-2.1-.07-4.74-7.15-2.8-8.04,11.16-5.09,18.29,2.52,19.2-7.2ZM1678.2,1231.38c-.83-12.84-10.37-18.33-21.12-17.05-9.52,1.14-15.31,9.36-14.97,20.17.36,11.76,8.54,18.45,19.02,18.07,10.79-.39,17.9-8.31,17.07-21.2ZM1716.36,1250.81l-8.52-14.95c4.35-3.92,7.05-8.25,6.83-12.02-.15-2.7-4.01-8.43-6.79-8.49l-23.66-.51-.05,36.52,6.26.19c1.15.03.53-3.41.82-5.01l2.1-11.62c13.51,5.59,10.68,21.62,23.01,15.9ZM1746.45,1241.76c-1.09,4.29-10.56,5.49-13.43,2.79s-4.94-7.65-5.07-12.29,3.98-10.16,7.96-11.59c8.31-2.98,7.03,6.96,17.72,4.45,1.48-.35-1.13-5.57-2.33-6.66-5.59-5.06-17.36-6.16-24.09-.59-9.25,7.65-9.2,23.57.2,30.92,8.13,6.36,19.5,4.2,27.41-1.48l.37-14.96-14.96.04c-1.31,0-1.31,5.61-.17,5s6.81,2.73,6.39,4.37ZM1780.89,1235.51l6.87-.42c.82-.05.25-3.8.1-5.41l-16.12-.69c-1.88-.08-2.22-7.4-.21-7.47l14.47-.45c1.43-.04,4.64-2.25,4.19-3.55-.33-.96-3.18-2.78-4.27-2.77l-23.71.27-.08,36.75,23.93.2c1.12,0,3.98-.3,3.96-1.11l-.14-4.85-19.62-.96c-.5-2.71-1.1-8.82.78-8.94l9.87-.61ZM1803.54,1218.45c.32-2-5-4.52-6.48-3.53-3.42,2.29-1.29,9.23.47,12.54.63,1.18,4.55-.03,4.77-1.37l1.24-7.64ZM1825.36,1252.58c7.28-.98,12-5.13,12.24-11.19.19-4.82-3.69-9.43-8.57-11.13l-14.31-4.99c7.58-14.49,20.13,8.47,20.85-1.11.55-7.37-8.59-11.31-15.89-10-5.22.94-10.31,4.32-10.93,9.34-.59,4.81,3.59,9.34,8.28,11.05l14,5.11c-3.28,4.1-5.47,6.55-7.52,6.82-5.74.74-13.64-13.05-14.84-6.05-1.48,8.66,7.68,13.36,16.68,12.15ZM1602.63,1293.16c-.32-4.85,3.48-11.24,6.99-12.46,7.7-2.68,8.53,8.63,16.43,4.3,1.06-.58-.46-4.85-1.28-5.74-4.67-5.07-13.14-6.43-20.36-3.37-4.85,2.06-9.08,9.51-9.4,16.63-.36,8.01,3.77,15.99,9.45,18.41,7.11,3.03,15.41,1.75,20.21-3.92.98-1.15,1.99-5.48,1.41-6.84-.43-1.02-4.08-2-4.78-1.14l-3.33,4.02c-1.78,2.11-7.39,3.76-9.78,2.35-2.93-1.72-5.22-6.85-5.57-12.23ZM1668.5,1291.36c-.84-11.97-9.15-17.53-19.3-17.21-8.69.28-15.55,6.32-16.61,16.23-1.33,12.42,5.44,21.63,16.63,22.23,11.72.63,20.25-7.46,19.28-21.26ZM1696.61,1276.82l-.05,22.01c0,3.57-4.02,7.51-7.51,7.49-3.09-.02-7.11-4.12-7.11-7.53v-22.82s-7.02-.55-7.02-.55c-.3,9.97-2.04,21.79,1.74,31.08s22.94,8.62,25.8-.84c2.4-7.93,1.68-20.58,1.31-29.28-.07-1.74-7.16-1.37-7.16.43ZM1741.46,1309.97l.02-33.28c0-1.77-6.3-1.73-6.43.04l-1.4,20.22-13.33-20.38c-1.08-1.66-7.4-1.67-8.17-.24l.07,34.92c2.26.29,6.22.11,6.36-1.29l1.89-18.58,12.39,18.39c1.31,1.94,8.6,2.72,8.6.2ZM1792.86,1311.76l4.96-.65c1.95-.25-.8-11.66,2.73-17.51l10.81-17.89c-2.67-.58-7.72-.64-8.76,1.02l-7.64,12.15-8.35-13.74-39.93.04c-.43,7.07,4.59,5.74,10.97,6.6l.64,28.29c.04,1.98,6.92,1.91,6.96-.02l.54-27.36,14.15-4.33,9.86,16.32c2.79,4.62-.25,17.52,3.05,17.09Z"/>
    <path d="M1334.66,1214.17l-.54,164.09-89.76,76.21c-5.04,4.28-7.56,11.34-7.52,17.77l.44,60.38c.04,5.48-3.13,10.32-8.3,12.49l-93.45,39.18c-21.58-30.1-42.62-58.51-61.89-89.06-14.98-23.74-33.49-39.73-58.88-51.99l-160.8-77.65c-9.04-4.36-16.12-9.1-21.25-17.7l-89.33-134.19-133.77-81.1,331.92-422.39c9.81-12.49,27.29-5.86,40.83.68,18.52,8.94,28.3,26.84,24.32,48.91-5.97,33.15,8.9,80.28,44.91,91.45,39.06,12.11,81.14,8.95,120.63,17.22,10.85,2.27,15.95,7.37,22.02,15.99l42.58,60.48-53.26,59.32,90.16,101.03c-13.69,16.63-37.26,18.74-37.06,39.08l.68,69.03,97.31.78ZM919.08,1105.87c-3.55-.15-7.28-.42-7.64-2.12-.27-1.28-.39-5.89.91-6.05l5.93-.71c5.28-.64,10.76,2.81,11.78-5.61l-26.2-.45.18,36.13c1.87.56,6.81,1.01,6.88-.55l.3-6.16c.11-2.38.36-7.52,2.28-7.69l7.09-.64c1.77-.16,4.51-.67,5.77-.99s.07-4.85-1.23-4.9l-6.05-.25ZM956.19,1123.45c1.7,2.67,3.48,4.76,4.83,4.82,1.02.05,3.83-1.65,4.21-2.47l-13.08-32.94c-.95-2.4-8.67-2.46-9.64.03l-12.91,33.22c.62.84,4.95,2.93,5.73,1.83l3.56-4.99c3.58-5.02,13.52-5.4,17.28.5ZM977.53,1090.84h-7.7v37.1h7.7v-37.1ZM1016.68,1126.58l-8.29-14.14c2.56-3.15,6.34-8.01,6.93-11.03s-3.78-9.98-6.87-10.04l-23.48-.45-.23,33.41c-.01,1.48,1.65,3.97,2.74,3.75l4.29-.85,1.53-15.93c13.29,2.88,11.36,22.22,23.39,15.29ZM1037.1,1105.71c-2.93-.1-6.55-.5-6.95-1.96s-.58-5.55.91-5.81l5.25-.92c5.64-.99,11.36,3.47,12.13-5.91l-26.11.02.03,34.74c0,1.42,6.38,3.07,6.57,1.58l.9-7.1c.3-2.36-.07-7.44,1.75-7.59l7.07-.62c1.7-.15,4.87-.78,6.25-1.14s.52-5-.94-5.05l-6.86-.25ZM1107.18,1108.63l10.03-16.71c-2.27-.65-6.96-1.36-7.98.09l-3.72,5.27c-.81,1.14-3.05,4.27-3.8,3.31l-2.67-3.42-4.52-5.8c-1.06-1.35-5.71.12-7.29.67l10.22,16.7-12.7,18.7-14.41-34.97c-.88-2.13-8.48-1.85-9.42.56l-12.81,33.2c.92.81,5.54,2.58,6.28,1.31l2.75-4.68c1.51-2.57,8.28-4.04,11.95-3.61,2.96.35,5.44,5.18,8.39,7.34,3.53,2.59,14.43,2.33,17.48-.92l8.37-8.93c5.11,9.42,7.65,13.27,15.09,10.14l-11.24-18.25ZM914.79,1157.77c7.24-5.44,18.89,11.34,18.64,2.75-.28-9.46-11.68-11.88-19.58-9.49-6.36,1.93-11.13,8.95-11.49,17.38-.35,8.2,3.55,16.25,9.87,18.7,7.64,2.96,16.07,1.76,20.9-5.76.95-1.47.12-6.03-1.61-6.21-1.39-.14-4.75,1.44-5.47,2.65-2.29,3.85-9.1,5.03-11.95,2.59-5.12-4.38-5.56-17.92.69-22.61ZM975.86,1167.38c-.85-11.75-9.11-17.41-18.49-17.26s-16.3,5.97-17.42,16.1c-1.39,12.59,5.17,22.08,17.24,22.43,10.97.32,19.67-7.46,18.67-21.27ZM1003.8,1153.62l.08,21.33c.01,3.56-5.02,8-8.19,7.51-2.44-.37-6.39-4.97-6.41-7.62l-.18-21.8c-.02-2.01-6.81-2.28-6.97-.51-.59,7.18-1.47,21.07,1.37,29.28,3.26,9.43,22.42,9.72,25.97.44,3.26-8.52,1.93-21.93,1.41-30.1-.54-1.66-7.08-.78-7.07,1.48ZM1048.82,1186.04l.08-32.85c0-1.12-5.75-3.3-5.93-2.12s-.47,3.06-.64,5.16l-1.37,16.69-11.84-18.07c-.79-1.21-2.77-3.2-3.85-4.07s-5.73,1.03-5.73,2.41l-.04,32.36c0,1.37,5.43,2.4,6.24,1.85l1.51-21.36,13.13,20c1.19,1.82,8.44,1.98,8.45-.02ZM1099.57,1187.58l5.16-.08c2.19-.03-.05-12.47,2.44-16.59l11.33-18.79c-1.31-.99-7.24-1.39-8.31.27l-7.8,12.13-8.74-13.55-39.47.07c.82,3.75,1.06,5.68,2.15,5.79l8.3.81,1.11,28.56c.07,1.89,6.84,1.63,6.9-.65l.69-26.21,13.08-6.14,11.15,18.16c2.05,3.33-.48,16.26,2.03,16.22Z"/>
    <path d="M944.29,1451.77l116.14,164.53c4.54,6.43,5.69,13.04,2.09,20.39l-119.6,244.42c-2.33,4.77-6.79,7.88-11.81,6.57l-94.21-24.63-160.94-203.97-112.96,95.82-270.34-529.69c-8-15.68-7.36-21.94-.29-37.52l102.07-224.88c3.43-7.56,5.79-13.54,11.24-20.39l193.76,292.94c4.98,7.52,12.64,9.32,21.01,9.3l98.11-.3c5.72-.02,12.85,3.55,15.85,7.97l23.57,34.76,7,10.6,66.92,101.15c3.3,4.99,9.76,8.96,15.23,10.98l82.09,30.24c5.4,1.99,11.04,6.03,15.05,11.71ZM559.82,1393.12c.83-3.71-1.46-12.48-5.67-13.18-8.22-1.36-14.75-1.16-22.69-.48l.04,33.91c0,1.87,6.09,3.69,6.34,2.22l.9-5.24,1.35-7.75c.36-2.06,17,2.8,19.74-9.48ZM598.36,1415.01l-8.36-15.25c4.26-4.11,6.81-8.23,6.71-11.81-.08-2.68-3.81-8.42-6.7-8.49l-23.66-.58-.32,31.87c-.01,1.22.3,4.77,1.43,4.75l5.23-.08c1.13-.02.24-3.45.55-4.84l2.58-11.69c13.67,7.99,10.38,20.72,22.54,16.13ZM611.08,1378.84h-7.59s.02,37.12.02,37.12h7.59s-.02-37.12-.02-37.12ZM647.66,1414.02v-33.03c.01-1.99-6.58-2.19-6.66-.51l-1.05,20.44c-4.17-6.14-8.07-12.14-11.84-18.46-1.5-2.51-9.38-4.91-9.4-2.08l-.3,35.03c2.51.14,6.35-.11,6.47-1.52l1.66-18.57,12.66,18.67c1.23,1.81,8.46,2.26,8.46.02ZM666.89,1385.77c8.55-5.96,12.62,9.65,18.68,2.64-.61-9.03-11.73-11.82-19.64-9.42-6.6,2.01-11.3,8.87-11.59,17.48-.27,8.22,3.61,16.35,10.01,18.71,7.22,2.67,15.09,1.53,19.99-4.75,1.19-1.52,1.81-6.18.2-6.76-7.85-2.86-9.17,11.62-17.56,5.32-6.63-4.98-6.39-18.83-.09-23.22ZM720.63,1394.28l-14.47-1.19c-1.68-.14-5.82-2.01-5.4-3.64s3.84-4.4,5.62-4.4l13.07.03c.85,0,1.68-2.67,1.74-3.47s-2.27-2.7-3.33-2.69l-24.49.14-.08,36.76,27.78-.09c.16-1.72.22-5.7-1.02-5.74l-15.72-.51c-2.14-.07-4.85-7.19-2.88-8.06,11.36-5.01,18.15,2.36,19.19-7.13ZM555.8,1441.76l-5.42,17.37-6.74-19.09c-1.15-1.17-7.95-2.07-8.53-.23l-2.07,6.64c-1.32,4.23-2.65,7.61-5.04,12.52l-5.38-18.41c-.53-1.8-6.82-1.5-7.14.22l8.08,33.87c1.23,1.59,7.96,1.19,8.56-.66l7.25-22.48,7.31,23.14c1.01.77,6.62.78,8.35.18l8.22-34.71c-2.04-1.29-6.68-.83-7.45,1.64ZM575.06,1438.85h-7.68v37.09h7.68v-37.09ZM603.47,1470.09l-13.39-1.29-.54-29.05-7.04-.37-.02,36.54,25.94-.26-.85-5.36c-.11-.7-1.57-.32-4.1-.21ZM621.76,1468.49l-.5-27.42c-.04-2.24-7.22-1.98-7.22.38l.14,34.14,23.63.38c1,.02,3.66-4.36,2.74-4.74s-2.73-1.07-3.74-1.18l-15.06-1.57ZM653.03,1438.85h-7.68v37.09h7.68v-37.09ZM682.81,1470.41c2.02,2.97,4.6,6.26,5.93,5.64l4.07-1.92-13.61-34.42-8.98.14-13.49,35.26c2.62.42,6.48,1.19,7.2-.1l2.74-4.87c2.78-3.68,13.19-4.06,16.13.27ZM727.14,1474.46c.11,1.42,6.28,1.01,6.28-.74l.03-34.19-11.16-.07-6.8,21.93-6.78-21.94-11.22.06.12,34.25c0,2,6.32,2.23,6.45.37l1.36-19.97,6.11,19.54c.61,1.96,6.8,2.67,7.39.86l6.64-20.37,1.57,20.26ZM530.94,1505.77c8.14-6.34,12.68,9.56,18.7,2.8-.33-9.61-11.72-11.88-19.53-9.52-6.51,1.97-11.24,8.85-11.56,17.36-.31,8.22,3.49,16.26,9.83,18.71,7.63,2.95,16.49,1.08,20.72-5.48,1.13-1.76.3-6.41-1.45-6.5-1.4-.07-4.67,1.46-5.6,2.73-2.56,3.49-8.14,5.51-10.99,3.13-6.64-5.52-6.03-18.65-.13-23.24ZM592.04,1515.4c-.85-11.83-9.09-17.37-18.5-17.24-9.52.13-16.24,5.91-17.4,16.08-1.42,12.56,5.18,21.97,17.24,22.39,10.96.38,19.64-7.52,18.65-21.24ZM619.97,1501.69l.08,21.24c.01,3.7-4.95,7.96-8.15,7.46-2.45-.38-6.42-4.87-6.44-7.54l-.17-21.82c-.02-2.03-6.83-2.3-6.98-.49-.58,7.14-1.48,21.08,1.37,29.25,3.3,9.47,22.49,9.77,26.02.35,3.17-8.44,1.88-21.93,1.35-29.99-.49-1.65-7.08-.75-7.07,1.54ZM664.98,1534.07l.08-32.87c0-1.13-5.75-3.32-5.93-2.13s-.47,3.08-.64,5.17l-1.36,16.71-11.81-18.06c-.78-1.19-2.81-3.23-3.89-4.11s-5.76,1.08-5.76,2.46l.05,32.64c0,1.83,6.27,2.1,6.38.32l1.3-19.96,13.15,19.84c1.19,1.79,8.41,1.98,8.41,0ZM715.73,1535.59l5.15-.1c2.18-.04-.06-12.44,2.46-16.61l11.32-18.78c-1.25-1.02-7.29-1.32-8.34.31l-7.78,12.1-8.75-13.55-39.46.07c.81,3.78,1.01,5.68,2.13,5.79l8.32.79,1.1,28.28c.09,2.28,6.85,2.01,6.9-.05l.69-26.48,13.08-6.15,11.16,18.14c2.03,3.3-.46,16.29,2.01,16.24Z"/>
    <path d="M1783.88,678.94l-242.1,245.58-41.73-38.07,173.07-334.46,64.65,28.32,41.21,93.03c.88,1.98,4.04,4.99,4.9,5.59Z"/>
    <path class="cls-1" d="M1494.58,955.05l5.12,4.89,76.8,75.68-129.45,134.31c-6.03-3.49-13.81-10.23-13.89-15.99l-.93-67.77c-.12-8.76-3.67-17.68-8.98-24.43l-45.07-57.29c-3.17-4.03-9.06-7.37-14.02-7.34l-39.76.25c-2.94.02-7.96-4.6-9.55-7.37l-13.1-22.84c-1.37-2.38-2.27-9.32-.37-11.32l92.86-97.63,87.16,85.05c4.58,4.47,4.87,11.68,13.18,11.8Z"/>
    <path d="M1602.31,1477.71c-4.97.11-10.19,1.03-15.75,2.81l-134.57,51.72-90.27-112.93,90.73-151.29,9.76-30.29,140.09,239.97Z"/>
    <path class="cls-1" d="M1379.92,1094.35s-9.38-.57-9.9.04l-45.99-.4-95.51-90.85c13.71-10.6,23.7-17.84,37.57-26.42l26.95,49c9.02,16.41,31.63,4.89,53.86,9.68l39.97,55.15-6.95,3.8Z"/>
    <path class="cls-1" d="M1390.26,1126.41c1.24,2.57,4.68,7.06,4.61,9.81l-1.14,41.67c-3.45,2.57-10.12,1.49-14.45,1.58l-39.16.86c.01-8.91-5.67-.18-5.67-.18l-57.28-.23-.6-30.99,14.74-7.09c43.27-20.8,55.22-14.42,98.96-15.42Z"/>
    <path d="M1328.22,1370.52l-.25-156.35c8.05-.61,17.79-.11,26.7,2.34l.45,126.7c.04,12.16-6,22.99-26.91,27.31Z"/>
    <path d="M1182.91,416.47l-1.5-20.53-5.51,17.24c-.63,1.97-1.65,3.91-2.73,4.81s-5.46-1.09-5.95-2.63l-6.04-19.14-1.32,19.96c-.12,1.83-6.44,1.58-6.45-.52l-.11-34.13h11.16s6.79,21.84,6.79,21.84l6.78-21.94,11.22.14-.03,34.16c0,1.72-6.19,2.13-6.31.74Z"/>
    <path d="M948.84,417.94l-1.32-22.19-5.65,17.3c-.63,1.93-1.68,3.91-2.64,4.93s-5.57-1.05-6.03-2.55l-5.97-19.39-1.53,21.29c-.71.64-6.37-.16-6.37-1.54l-.08-33.6c2.39-.85,8.82-1.08,11.19-.53l6.82,21.75,6.75-21.89,11.15-.13.19,33.16c-.37,1.42-.35,2.62-1,2.7l-5.52.72Z"/>
    <path d="M1197.15,477.75c-3.32.43-.35-12.63-3.01-17.03l-9.91-16.39-14.18,4.35-.52,27.36c-.04,1.94-6.92,1.99-6.96.02l-.65-28.29c-6.36-.87-11.4.44-10.95-6.57l39.92-.05,8.37,13.73,7.55-12.08c1.07-1.7,6.23-1.69,8.84-1.12l-10.82,17.9c-3.55,5.88-.79,17.27-2.75,17.52l-4.92.64Z"/>
    <path d="M1145.74,476.13c0,2.27-7.34,1.52-8.56-.29l-12.45-18.47-1.92,18.59c-.14,1.4-4.07,1.57-6.33,1.28l-.06-34.88c.76-1.48,7.07-1.48,8.18.23l13.32,20.37,1.39-20.21c.12-1.77,6.44-1.79,6.44.04v33.34Z"/>
    <path d="M1032.69,415.86c0,2.05-7.22,2.23-8.41.43l-13.3-20.27-1.22,21.33c-.77.58-6.53-.23-6.53-1.65l.18-32.98c.01-2.19,7.14-1.63,8.41.3l12.16,18.63,2.01-15.24.54-4.83c.16-1.4,6.16.23,6.16,1.59v32.7Z"/>
    <path d="M1264.08,417.13c-13.38,4.15-9.18-8.04-22.39-15.92-1.83,3.38-2.76,7.34-3.29,10.9l-.82,5.56c-.22,1.5-6.15-.55-6.15-2.16v-34.02c8.56-.72,32.27-4.02,30.51,10.18-.41,3.31-3.46,7.11-7.36,10.41l9.5,15.06ZM1251.82,388.05c-3.05-.98-10.35-1.88-12.34.29-1.17,1.28-1.39,7.59.33,7.71l6.85.48c1.48.1,5.19-1.22,6.55-1.97s.13-6.02-1.38-6.51Z"/>
    <path d="M1223.99,396.7c-1.92,8.99-7.83,1.64-19.58,6.71-1.63.7-.08,7.56,1.73,7.64l14.38.69c1.26.06,3.82,1.1,4.81,1.73s-1.95,4.5-3.41,4.49l-25.11-.22.03-36.71,24.8-.16c1.25,0,3.44,3.58,2.67,4.21s-2.92,1.8-3.91,1.85l-14.36.71c-1.31.07-2.99,5.48-1.76,5.85s4.14,1.11,5.83,1.34l13.9,1.85Z"/>
    <path d="M1098.12,407.06l-9.25-6.46c4.87-3.07,12.06-3.29,15.97-1.72,2.2,4.82,1.66,14.53-2.49,16.58-8.87,4.38-20.35,4.51-26.74-2.97-5.85-6.86-5.97-18.78-.17-26.2,5.99-7.66,19.27-8.12,26.52-1.94,1.31,1.12,3.51,5.58,2.22,6.44-7.38,4.86-9.8-7.63-18.11-3.99-3.85,1.69-7.34,7.11-7.26,11.44.09,5.14,2.39,10.57,5.81,12.88s12.28.54,13.5-4.05Z"/>
    <path d="M1072.76,457.35c.97,13.81-7.53,21.92-19.37,21.26-11.07-.62-17.87-9.84-16.53-22.23,1.07-9.95,7.88-15.92,16.69-16.23,10.05-.35,18.38,5.24,19.22,17.2ZM1065.08,457.73c-.43-8.28-5.9-11.69-11.78-11.08-4.54.48-8.85,5.91-8.96,12-.07,3.96,2.24,10.11,4.89,11.88,2.93,1.96,9.72,1.63,12.04-.55,2.1-1.97,4.03-8.24,3.82-12.26Z"/>
    <path d="M1147.49,397.61c.86,13.02-7.2,21.11-18.12,21.06s-18.5-8.31-18.05-20.31c.39-10.37,6.94-17.44,16.06-18.13,10.65-.8,19.3,5.21,20.11,17.39ZM1139.76,398.08c-.41-8.75-5.97-12.37-12.52-11.33-4.22.67-8.16,6.25-8.26,12.09-.06,3.59,2.29,9.67,4.65,11.59s9.31,1.76,11.77-.07,4.55-8.14,4.35-12.29Z"/>
    <path d="M997.32,398.61c.32,11.85-7.08,20-18.02,20.04s-18.63-8.14-18.21-20.13c.39-11.3,7.77-18.53,18.23-18.39s17.71,7.27,18.01,18.48ZM989.57,399.53c.04-7.55-4.1-13.02-10.22-13.03s-10.32,5.34-10.56,11.96c-.27,7.36,3.63,13.6,10.43,13.7,5.8.08,10.31-5.42,10.34-12.62Z"/>
    <path d="M1100.95,442.95c.01-1.7,6.18-2,7.32-1.16-.02,11.21.95,20.37-1.68,30.11-2.42,8.98-22.18,9.61-25.69.64-3.69-9.41-2.08-21.09-1.75-31.11l7.05.51v22.91c0,3.34,4.04,7.45,7.1,7.46,3.61.02,7.48-3.76,7.51-7.63l.15-21.73Z"/>
    <path d="M1006.9,459.27c.26,5.08,2.84,10.57,5.49,12.09,2.45,1.4,8.07-.14,9.82-2.28l3.37-4.06c.71-.86,4.14.21,4.74,1.14.81,1.24-.38,5.67-1.46,6.93-4.62,5.4-13.07,6.92-20.16,3.85-5.65-2.44-9.78-10.45-9.43-18.43.32-7.17,4.54-14.55,9.4-16.65,7.14-3.08,15.88-1.55,20.28,3.32.94,1.04,2.12,4.89,1.3,5.79-5.2,5.72-8.99-6.82-16.38-4.25-3.52,1.23-7.24,7.4-6.98,12.55Z"/>
    <path d="M1285.4,401.09c-2.72,4.62.25,16.53-2.33,16.48l-5.19-.1c-2.32-.04.38-12.35-2.79-17.55l-10.82-17.74c10.05-7.64,14.66,15.32,16.99,11.56l3.27-5.28c3.13-5.04,5.16-9.65,12.16-6.56l-11.29,19.19Z"/>
    <path d="M1056.09,416.11c-.04,1.32-6.46,1.54-6.58.93l-1.08-29.8-8.52-.16c-1.18-.02-1.26-1.84-1.97-5.96l29.92.23c.25,6.75-4.84,5.59-11,6.47l-.77,28.28Z"/>
    <path d="M404.79,561.75l-10.13-17.47-14.28,4.5-.48,27.11c-.03,1.49-5.51,1.91-6.92,1.47l-.75-29.92c-6.22-.29-11.44.77-10.94-6.26l39.93-.04,8.31,13.68,8.29-12.76c.96-1.47,7.21-.73,7.72.15l-10.84,18.59c-1.77,3.04-1.51,11.51-1.76,15.21-.13,1.96-6.64,2.25-6.86.33-.35-3.05.32-11.79-1.3-14.58Z"/>
    <path d="M356.06,575.73c0,2.91-7.25,2.01-8.6.02l-12.39-18.37-1.92,18.58c-.15,1.4-4.07,1.58-6.33,1.29l-.07-34.96c.79-1.4,7.08-1.39,8.18.29l13.33,20.37,1.41-20.27c.12-1.77,6.4-1.79,6.39.09l-.02,32.96Z"/>
    <path d="M444.31,516.16c0,2.17-7.49,1.52-8.81-.46l-12.32-18.36-1.77,18.7c-.17,1.75-6.42,1.76-6.43-.12l-.25-33.5c.72-1.51,7.21-1.64,8.28,0l13.31,20.53,1.41-20.14c.13-1.84,6.58-1.86,6.58-.16v33.5Z"/>
    <path d="M371.39,498.66c.28,10.86-5.97,19.03-15.85,19.86-10.58.89-19.05-4.85-20.2-16.03-1.24-12.12,4.93-21.57,16.17-22.31s19.57,6.33,19.88,18.49ZM363.48,499.46c.04-8.56-4.3-13.64-11.9-12.8-4.28.48-8.5,5.92-8.71,11.76-.25,6.84,3.6,12.92,8.8,13.57,7.22.91,11.77-4.19,11.81-12.54Z"/>
    <path d="M323.21,515.26c-6.75,4.28-16.36,2.59-23.91,2.29l-.16-35.95c6.89-.81,16.93-2.25,23.65,1.49,10.2,5.68,10.92,25.52.43,32.18ZM318.09,488.12c-2.94-.38-7.24-.71-11.29-.98l-.02,24.38c4.74.06,10.07.03,12.47-1.48,5.46-3.42,3.75-21.29-1.17-21.93Z"/>
    <path d="M255.75,497.63c.76,12.07-6.32,20.18-15.99,20.93-11.46.9-19.85-6.27-20.2-18.2-.33-11.18,5.98-19.48,16.12-20.16s19.29,5.12,20.06,17.42ZM248.01,499.62c.08-8.62-4.65-14.09-12.37-12.93-4.93.74-8.63,7.24-8.37,13.46.28,6.53,4.54,11.92,10.39,12.02s10.28-5.69,10.35-12.56Z"/>
    <path d="M283.75,482.79c0-1.89,7.29-2.03,7.35.2.21,8.1,1.59,22.05-2.14,29.95-4.02,8.5-22.3,7.95-25.4-.7-3.3-9.22-2.03-21.19-1.65-30.39.82-.82,6.93-.56,6.95,1.08l.34,22.43c.04,2.54,4.51,6.88,6.93,7.15,3.08.35,7.58-4.21,7.58-7.61l.03-22.11Z"/>
    <path d="M283.1,557.36c.98,13.8-7.56,21.88-19.28,21.25s-17.96-9.81-16.63-22.22c1.07-9.99,7.88-15.86,16.65-16.21,10.12-.4,18.4,5.22,19.25,17.18ZM275.4,557.68c-.37-8.18-5.91-11.65-11.76-11.03-4.55.49-8.85,5.9-8.97,12.01-.08,3.94,2.28,10.12,4.91,11.88,2.81,1.88,9.72,1.69,11.99-.54s4.02-8.04,3.83-12.32Z"/>
    <path d="M399.27,487.2c-.01-2.55-.12-5.86,1.04-5.85l5.38.03c1.22,0,2.65,22.91-1.2,31.62-3.58,8.08-21.98,7.94-25.15-.43-3.59-9.47-2.23-21.29-1.8-30.97,1.25-.48,6.66-.25,6.95,1.01l.14,22.15c.02,3.29,4.27,7.52,7.35,7.65s7.39-4.33,7.38-7.23l-.07-17.98Z"/>
    <path d="M311.3,543.01c.01-1.82,6.17-2.09,7.32-1.22-.02,11.2.95,20.36-1.68,30.1-2.41,8.97-22.18,9.6-25.69.64-3.68-9.39-2.06-21.1-1.73-31.12l7.02.55v22.85c0,3.28,4.12,7.55,7.1,7.56,3.51,0,7.48-3.95,7.5-7.7l.15-21.67Z"/>
    <path d="M217.21,559.28c.24,5.02,2.99,10.6,5.62,12.2,2.39,1.46,8-.28,9.84-2.36,1.81-2.6,2.26-4.35,3.32-4.11l4.67,1.07c1.44.33-.54,5.99-1.81,7.45-3.52,4.08-12.8,6.51-19.76,3.43-5.72-2.52-9.77-10.47-9.45-18.39s5.13-15.53,10.74-17.21c8.77-2.62,16.33-.96,21.14,7.04-4.7,10.86-9.46-4.36-17.25-1.7-3.59,1.23-7.29,7.49-7.05,12.56Z"/>
    <path d="M209.77,511.9l5.41.58c1.19.13,0,5.3-1.19,5.29l-24.3-.18v-34.54c0-2.19,7.19-1.98,7.22,0l.34,27.49,12.52,1.36Z"/>
    <path d="M1792.86,1311.76c-3.3.43-.26-12.47-3.05-17.09l-9.86-16.32-14.15,4.33-.54,27.36c-.04,1.93-6.92,2-6.96.02l-.64-28.29c-6.39-.86-11.4.47-10.97-6.6l39.93-.04,8.35,13.74,7.64-12.15c1.04-1.66,6.09-1.6,8.76-1.02l-10.81,17.89c-3.53,5.85-.78,17.26-2.73,17.51l-4.96.65Z"/>
    <path d="M1636.3,1230.21c-.91,9.71-8.04,2.1-19.2,7.2-1.94.89.7,7.97,2.8,8.04,4,.14,12.33.26,15.75.58,1.25.11,1.29,4.07,1.07,5.71h-27.58s-.04-36.62-.04-36.62l26.85-.23.69,6.14-14.67.04c-1.65,0-5.41,2.69-5.54,4.36s3.62,3.57,5.42,3.71l14.47,1.08Z"/>
    <path d="M1741.46,1309.97c0,2.51-7.3,1.74-8.6-.2l-12.39-18.39-1.89,18.58c-.14,1.4-4.1,1.58-6.36,1.29l-.07-34.92c.78-1.43,7.09-1.41,8.17.24l13.33,20.38,1.4-20.22c.12-1.77,6.43-1.81,6.43-.04l-.02,33.28Z"/>
    <path d="M1724.1,1190.05c0,2-7.11,1.93-8.23.23l-13.21-20.1-1.21,19.97c-.11,1.76-6.64,1.66-6.62-.34l.28-33.48c.02-2.49,7.69-.54,9.13,1.7l11.31,17.62,2.31-15.3c-.17-1.94-.92-4.83.21-4.8l6.04.19v34.31Z"/>
    <path d="M1674.99,1190.58c-12.75,6.85-10.23-12.67-23.91-15.05l-1.35,14.95c-.15,1.69-6.91,1.33-6.92-.58l-.05-34.54c8.26-.71,18.64-.76,25.41.87,2.94.71,6.15,8.28,4.95,10.84s-4.39,6.32-6.94,9.33l8.81,14.18ZM1663.23,1162.26c-2.82-1.38-10.57-2.21-12.52.02-1.16,1.33-1.14,7.9.63,7.94l6.85.16c1.4.03,5.14-1.33,6.43-1.88s0-5.55-1.39-6.23Z"/>
    <path d="M1746.45,1241.76c.42-1.64-5.25-4.98-6.39-4.37s-1.15-5,.17-5l14.96-.04-.37,14.96c-7.91,5.67-19.28,7.84-27.41,1.48-9.39-7.35-9.45-23.27-.2-30.92,6.74-5.57,18.5-4.47,24.09.59,1.2,1.09,3.81,6.31,2.33,6.66-10.68,2.52-9.41-7.43-17.72-4.45-3.98,1.43-8.09,7.13-7.96,11.59s2.32,9.71,5.07,12.29,12.34,1.5,13.43-2.79Z"/>
    <path d="M1716.36,1250.81c-12.34,5.72-9.51-10.31-23.01-15.9l-2.1,11.62c-.29,1.6.33,5.05-.82,5.01l-6.26-.19.05-36.52,23.66.51c2.78.06,6.64,5.79,6.79,8.49.22,3.77-2.49,8.1-6.83,12.02l8.52,14.95ZM1703.81,1221.56c-2.75-.62-9.75-.99-11.61.93-1.26,1.3-.86,7.63.95,7.69l7.33.23c1.71.05,4.98-1.77,6.24-2.9.95-.85-1.66-5.67-2.91-5.95Z"/>
    <path d="M1593.67,1241.41l-8.44-6.81c3.98-3.32,14.28-4.15,16.07-.57,1.46,2.93,1.35,11.32-.52,13.55s-6.76,3.86-10.62,4.58c-11.4,2.13-20.8-3.91-22.55-14.86-1.49-9.28,2.53-17.88,9.16-21.28,8.32-4.26,20.35-1.25,23.54,5.74.58,1.27-2.32,5.28-3.25,4.67l-4.77-3.13c-2.49-1.63-7.82-3.28-10.43-2.28-3.43,1.32-6.86,7.09-6.99,11.28-.17,5.54,3.04,11.15,7.22,13.38,3.18,1.7,12.67-1.48,11.57-4.27Z"/>
    <path d="M1780.89,1235.51l-9.87.61c-1.88.12-1.28,6.23-.78,8.94l19.62.96.14,4.85c.02.82-2.84,1.12-3.96,1.11l-23.93-.2.08-36.75,23.71-.27c1.09-.01,3.93,1.8,4.27,2.77.45,1.3-2.76,3.5-4.19,3.55l-14.47.45c-2.01.06-1.68,7.39.21,7.47l16.12.69c.15,1.61.71,5.36-.1,5.41l-6.87.42Z"/>
    <path d="M1788.9,1175.5l-10,.62c-1.95.12-1.32,6.6-.72,8.92l19.64.98-.32,5.8-27.57.04.08-36.81,25.24-.16c.89,0,3,4.51,2.14,4.75l-3.52,1.02-16.91,1.87c.17,9.43,8.11,6.38,12.94,6.77l5.47.44c1.13.09,1.12,5.27,0,5.34l-6.48.41Z"/>
    <path d="M1678.2,1231.38c.83,12.88-6.28,20.81-17.07,21.2-10.48.38-18.66-6.32-19.02-18.07-.33-10.81,5.45-19.04,14.97-20.17,10.75-1.28,20.29,4.21,21.12,17.05ZM1670.59,1233.65c.25-8.89-4.83-13.64-11.49-13.01-5.88.55-9.54,6.68-9.24,13.61s4.92,12.2,11.12,11.89c5.3-.26,9.43-5.67,9.62-12.49Z"/>
    <path d="M1668.5,1291.36c.97,13.8-7.56,21.89-19.28,21.26-11.19-.6-17.96-9.81-16.63-22.23,1.06-9.91,7.92-15.95,16.61-16.23,10.15-.33,18.46,5.24,19.3,17.21ZM1660.79,1291.68c-.39-8.18-5.9-11.65-11.75-11.02-4.55.48-8.85,5.91-8.96,12.01-.08,3.96,2.22,10.13,4.9,11.86,2.94,1.91,9.7,1.81,11.95-.44,2.31-2.32,4.08-8.07,3.87-12.4Z"/>
    <path d="M1825.36,1252.58c-9,1.21-18.16-3.49-16.68-12.15,1.2-7,9.09,6.79,14.84,6.05,2.05-.26,4.24-2.71,7.52-6.82l-14-5.11c-4.69-1.71-8.87-6.24-8.28-11.05.62-5.02,5.71-8.4,10.93-9.34,7.3-1.31,16.44,2.63,15.89,10-.72,9.58-13.27-13.38-20.85,1.11l14.31,4.99c4.88,1.7,8.76,6.31,8.57,11.13-.24,6.06-4.96,10.22-12.24,11.19Z"/>
    <path d="M1696.61,1276.82c0-1.8,7.09-2.18,7.16-.43.37,8.7,1.09,21.35-1.31,29.28-2.86,9.46-22.17,9.79-25.8.84s-2.04-21.12-1.74-31.08l7.01.55v22.82c.01,3.4,4.03,7.5,7.12,7.53,3.49.03,7.51-3.92,7.51-7.49l.05-22.01Z"/>
    <path d="M1738.44,1173.31c.24,5.08,2.85,10.35,5.83,12.25,6.9,4.38,9.33-6.11,15.15-6.7,1.93-.19,3.16,5.45,1.99,6.97-4.98,6.5-12.06,7.92-19.67,5.68-5.92-1.75-10.79-9.27-10.92-17.21-.12-7.18,3.33-15.22,8.07-17.77,7.38-3.96,16.79-2.83,21.72,2.86.79.92,2.41,5.13,1.32,5.57-9.4,3.75-8.49-6.89-16.36-4.24-3.61,1.22-7.37,7.41-7.13,12.59Z"/>
    <path d="M1602.63,1293.16c.35,5.38,2.64,10.51,5.57,12.23,2.4,1.41,8-.24,9.78-2.35l3.33-4.02c.71-.86,4.35.12,4.78,1.14.57,1.37-.44,5.69-1.41,6.84-4.81,5.67-13.1,6.95-20.21,3.92-5.68-2.42-9.81-10.4-9.45-18.41.32-7.13,4.56-14.58,9.4-16.63,7.22-3.06,15.69-1.7,20.36,3.37.82.89,2.33,5.16,1.28,5.74-7.9,4.33-8.73-6.98-16.43-4.3-3.52,1.22-7.31,7.61-6.99,12.46Z"/>
    <path d="M1636.2,1169.27c-2.98,12.85-19.75,6.14-20.19,10.32l-.74,6.87c-.21,1.94.21,5-.91,4.99l-6.22-.04-.18-36.21c7.07-.28,13.74-.34,21.97.44,4.88.46,7.26,9.37,6.28,13.63ZM1627.44,1163.01c-3.28-2.01-10.02-2.86-11.25-.65-.99,1.78-1.13,9.07.92,9l8.56-.29c2.03-.07,3.51-7,1.78-8.06Z"/>
    <rect x="1680.06" y="1154.9" width="7.52" height="36.98"/>
    <path d="M1803.54,1218.45l-1.24,7.64c-.22,1.34-4.14,2.55-4.77,1.37-1.76-3.31-3.89-10.25-.47-12.54,1.48-.99,6.8,1.53,6.48,3.53Z"/>
    <path d="M1107.18,1108.63l11.24,18.25c-7.44,3.13-9.98-.72-15.09-10.14l-8.37,8.93c-3.05,3.25-13.95,3.51-17.48.92-2.95-2.16-5.43-6.99-8.39-7.34-3.67-.44-10.44,1.04-11.95,3.61l-2.75,4.68c-.74,1.26-5.36-.5-6.28-1.31l12.81-33.2c.93-2.41,8.54-2.69,9.42-.56l14.41,34.97,12.7-18.7-10.22-16.7c1.59-.55,6.24-2.02,7.29-.67l4.52,5.8,2.67,3.42c.75.96,3-2.16,3.8-3.31l3.72-5.27c1.02-1.45,5.71-.75,7.98-.09l-10.03,16.71ZM1069.68,1109.75l-4.46-9.49-3.23,10.49c-.37,1.19,3.97,2.63,5.33,2.82.88.13,2.78-2.95,2.37-3.82Z"/>
    <path d="M1099.57,1187.58c-2.51.04.02-12.89-2.03-16.22l-11.15-18.16-13.08,6.14-.69,26.21c-.06,2.28-6.82,2.54-6.9.65l-1.11-28.56-8.3-.81c-1.09-.11-1.34-2.04-2.15-5.79l39.47-.07,8.74,13.55,7.8-12.13c1.07-1.67,7-1.27,8.31-.27l-11.33,18.79c-2.49,4.13-.25,16.56-2.44,16.59l-5.16.08Z"/>
    <path d="M1016.68,1126.58c-12.03,6.93-10.1-12.41-23.39-15.29l-1.53,15.93-4.29.85c-1.09.22-2.75-2.27-2.74-3.75l.23-33.41,23.48.45c3.09.06,7.45,7.02,6.87,10.04s-4.37,7.88-6.93,11.03l8.29,14.14ZM1004.31,1097.4c-2.87-.24-9.97,0-11.6,0-.3,3.96-.96,8.64.81,8.71l7.4.29c1.75.07,4.91-1.48,6.27-2.6,1.02-.84-1.53-6.3-2.89-6.41Z"/>
    <path d="M1048.82,1186.04c0,2-7.26,1.84-8.45.02l-13.13-20-1.51,21.36c-.81.55-6.24-.49-6.24-1.85l.04-32.36c0-1.38,4.65-3.28,5.73-2.41s3.06,2.86,3.85,4.07l11.84,18.07,1.37-16.69c.17-2.1.45-3.97.64-5.16s5.94,1,5.93,2.12l-.08,32.85Z"/>
    <path d="M1003.8,1153.62c0-2.26,6.54-3.14,7.07-1.48.52,8.17,1.85,21.58-1.41,30.1-3.55,9.28-22.7,9-25.97-.44-2.84-8.2-1.95-22.1-1.37-29.28.16-1.77,6.96-1.5,6.97.51l.18,21.8c.02,2.65,3.97,7.25,6.41,7.62,3.17.49,8.2-3.95,8.19-7.51l-.08-21.33Z"/>
    <path d="M975.86,1167.38c.99,13.81-7.7,21.58-18.67,21.27-12.06-.35-18.63-9.84-17.24-22.43,1.12-10.12,7.96-15.94,17.42-16.1s17.65,5.51,18.49,17.26ZM968.23,1169.66c.15-8.5-5.01-13.45-10.84-13.09-6.84.42-10.2,6.85-9.85,13.85s4.7,12.24,11.76,11.68c4.52-.36,8.81-5.94,8.93-12.43Z"/>
    <path d="M956.19,1123.45c-3.77-5.9-13.7-5.51-17.28-.5l-3.56,4.99c-.78,1.09-5.11-.99-5.73-1.83l12.91-33.22c.97-2.48,8.69-2.42,9.64-.03l13.08,32.94c-.38.82-3.2,2.51-4.21,2.47-1.36-.06-3.13-2.16-4.83-4.82ZM951.85,1112.78l-4.54-12.74-4.45,12.9,8.98-.15Z"/>
    <path d="M914.79,1157.77c-6.25,4.7-5.81,18.23-.69,22.61,2.85,2.44,9.66,1.25,11.95-2.59.72-1.21,4.09-2.79,5.47-2.65,1.73.18,2.55,4.74,1.61,6.21-4.83,7.52-13.26,8.72-20.9,5.76-6.32-2.45-10.21-10.49-9.87-18.7.36-8.43,5.12-15.45,11.49-17.38,7.9-2.39,19.3.02,19.58,9.49.25,8.59-11.4-8.19-18.64-2.75Z"/>
    <path d="M1037.1,1105.71l6.86.25c1.46.05,2.31,4.69.94,5.05s-4.55.99-6.25,1.14l-7.07.62c-1.82.16-1.45,5.23-1.75,7.59l-.9,7.1c-.19,1.49-6.57-.16-6.57-1.58l-.03-34.74,26.11-.02c-.77,9.38-6.49,4.92-12.13,5.91l-5.25.92c-1.49.26-1.31,4.35-.91,5.81s4.02,1.85,6.95,1.96Z"/>
    <path d="M919.08,1105.87l6.05.25c1.3.05,2.48,4.59,1.23,4.9s-4,.83-5.77.99l-7.09.64c-1.92.17-2.16,5.31-2.28,7.69l-.3,6.16c-.08,1.57-5.01,1.11-6.88.55l-.18-36.13,26.2.45c-1.03,8.42-6.5,4.97-11.78,5.61l-5.93.71c-1.3.16-1.18,4.77-.91,6.05.36,1.7,4.09,1.97,7.64,2.12Z"/>
    <rect x="969.84" y="1090.84" width="7.7" height="37.1"/>
    <path d="M727.14,1474.46l-1.57-20.26-6.64,20.37c-.59,1.81-6.78,1.1-7.39-.86l-6.11-19.54-1.36,19.97c-.13,1.86-6.44,1.63-6.45-.37l-.12-34.25,11.22-.06,6.78,21.94,6.8-21.93,11.16.07-.03,34.19c0,1.75-6.17,2.16-6.28.74Z"/>
    <path d="M555.8,1441.76c.77-2.47,5.4-2.92,7.45-1.64l-8.22,34.71c-1.73.61-7.34.59-8.35-.18l-7.31-23.14-7.25,22.48c-.6,1.85-7.33,2.25-8.56.66l-8.08-33.87c.32-1.72,6.62-2.01,7.14-.22l5.38,18.41c2.39-4.91,3.72-8.3,5.04-12.52l2.07-6.64c.58-1.84,7.38-.94,8.53.23l6.74,19.09,5.42-17.37Z"/>
    <path d="M715.73,1535.59c-2.48.05.02-12.94-2.01-16.24l-11.16-18.14-13.08,6.15-.69,26.48c-.05,2.06-6.81,2.33-6.9.05l-1.1-28.28-8.32-.79c-1.11-.11-1.32-2.01-2.13-5.79l39.46-.07,8.75,13.55,7.78-12.1c1.05-1.63,7.09-1.33,8.34-.31l-11.32,18.78c-2.52,4.18-.28,16.57-2.46,16.61l-5.15.1Z"/>
    <path d="M720.63,1394.28c-1.04,9.49-7.83,2.12-19.19,7.13-1.97.87.74,7.99,2.88,8.06l15.72.51c1.24.04,1.18,4.01,1.02,5.74l-27.78.09.08-36.76,24.49-.14c1.06,0,3.38,1.89,3.33,2.69s-.89,3.48-1.74,3.47l-13.07-.03c-1.78,0-5.2,2.76-5.62,4.4s3.71,3.51,5.4,3.64l14.47,1.19Z"/>
    <path d="M647.66,1414.02c0,2.24-7.23,1.8-8.46-.02l-12.66-18.67-1.66,18.57c-.13,1.41-3.96,1.66-6.47,1.52l.3-35.03c.02-2.83,7.9-.43,9.4,2.08,3.78,6.32,7.67,12.31,11.84,18.46l1.05-20.44c.09-1.68,6.68-1.48,6.68.51v33.03Z"/>
    <path d="M598.36,1415.01c-12.16,4.59-8.88-8.14-22.54-16.13l-2.58,11.69c-.31,1.39.58,4.83-.55,4.84l-5.23.08c-1.13.02-1.44-3.53-1.43-4.75l.32-31.87,23.66.58c2.89.07,6.62,5.81,6.7,8.49.1,3.59-2.44,7.7-6.71,11.81l8.36,15.25ZM586.29,1385.64l-11.17-.29c-1.86-.05-2.42,8.06-.57,8.26l8.28.92c1.52.17,4.99-2.26,6.06-3.42.81-.87-1.39-5.44-2.59-5.47Z"/>
    <path d="M664.98,1534.07c0,1.99-7.22,1.8-8.41,0l-13.15-19.84-1.3,19.96c-.12,1.77-6.38,1.51-6.38-.32l-.05-32.64c0-1.38,4.68-3.33,5.76-2.46s3.11,2.92,3.89,4.11l11.81,18.06,1.36-16.71c.17-2.09.45-3.99.64-5.17s5.94,1,5.93,2.13l-.08,32.87Z"/>
    <path d="M619.97,1501.69c0-2.29,6.58-3.19,7.07-1.54.53,8.06,1.82,21.56-1.35,29.99-3.54,9.41-22.72,9.12-26.02-.35-2.84-8.17-1.95-22.11-1.37-29.25.15-1.81,6.96-1.53,6.98.49l.17,21.82c.02,2.66,3.99,7.15,6.44,7.54,3.2.5,8.17-3.77,8.15-7.46l-.08-21.24Z"/>
    <path d="M592.04,1515.4c.99,13.72-7.69,21.62-18.65,21.24-12.06-.42-18.66-9.83-17.24-22.39,1.15-10.18,7.87-15.95,17.4-16.08,9.41-.13,17.65,5.41,18.5,17.24ZM584.4,1517.66c.16-8.49-5-13.45-10.84-13.09-6.82.42-10.21,6.86-9.84,13.83.37,7.03,4.67,12.29,11.75,11.69,4.54-.39,8.82-5.91,8.94-12.43Z"/>
    <path d="M682.81,1470.41c-2.94-4.33-13.35-3.95-16.13-.27l-2.74,4.87c-.72,1.29-4.59.51-7.2.1l13.49-35.26,8.98-.14,13.61,34.42-4.07,1.92c-1.34.63-3.92-2.67-5.93-5.64ZM679.56,1460.87l-4.89-11.45-4.94,11.67,9.83-.21Z"/>
    <path d="M559.82,1393.12c-2.74,12.27-19.38,7.41-19.74,9.48l-1.35,7.75-.9,5.24c-.25,1.47-6.34-.35-6.34-2.22l-.04-33.91c7.94-.68,14.47-.88,22.69.48,4.21.7,6.5,9.47,5.67,13.18ZM551.06,1387.32c-2.65-2.36-10.32-3.36-11.46-.92s-.37,9.47,1.85,9.23l8.08-.89c1.85-.2,2.9-6.2,1.52-7.42Z"/>
    <path d="M530.94,1505.77c-5.89,4.59-6.5,17.72.13,23.24,2.86,2.38,8.43.35,10.99-3.13.93-1.27,4.2-2.8,5.6-2.73,1.75.09,2.58,4.74,1.45,6.5-4.23,6.56-13.1,8.43-20.72,5.48-6.35-2.46-10.14-10.49-9.83-18.71.32-8.51,5.05-15.39,11.56-17.36,7.81-2.36,19.19-.09,19.53,9.52-6.03,6.76-10.56-9.14-18.7-2.8Z"/>
    <path d="M666.89,1385.77c-6.3,4.39-6.54,18.24.09,23.22,8.39,6.3,9.71-8.18,17.56-5.32,1.61.59.98,5.24-.2,6.76-4.9,6.28-12.77,7.41-19.99,4.75-6.4-2.36-10.28-10.49-10.01-18.71.28-8.61,4.99-15.47,11.59-17.48,7.9-2.41,19.03.39,19.64,9.42-6.06,7.01-10.13-8.6-18.68-2.64Z"/>
    <path d="M621.76,1468.49l15.06,1.57c1.01.1,2.81.8,3.74,1.18s-1.74,4.76-2.74,4.74l-23.63-.38-.14-34.14c0-2.36,7.17-2.62,7.22-.38l.5,27.42Z"/>
    <path d="M603.47,1470.09c2.53-.11,3.99-.49,4.1.21l.85,5.36-25.94.26.02-36.54,7.04.37.54,29.05,13.39,1.29Z"/>
    <rect x="603.5" y="1378.84" width="7.59" height="37.12"/>
    <rect x="567.38" y="1438.85" width="7.68" height="37.09"/>
    <rect x="645.35" y="1438.85" width="7.68" height="37.09"/>
    <path d="M1251.82,388.05c1.51.49,2.74,5.77,1.38,6.51s-5.07,2.07-6.55,1.97l-6.85-.48c-1.72-.12-1.5-6.44-.33-7.71,1.99-2.17,9.29-1.27,12.34-.29Z"/>
    <path d="M1065.08,457.73c.21,4.02-1.72,10.29-3.82,12.26-2.32,2.17-9.11,2.51-12.04.55-2.65-1.77-4.96-7.92-4.89-11.88.11-6.09,4.42-11.53,8.96-12,5.88-.62,11.35,2.79,11.78,11.08Z"/>
    <path d="M1139.76,398.08c.19,4.15-1.88,10.45-4.35,12.29s-9.41,1.99-11.77.07-4.71-8.01-4.65-11.59c.1-5.85,4.03-11.42,8.26-12.09,6.55-1.04,12.11,2.58,12.52,11.33Z"/>
    <path d="M989.57,399.53c-.03,7.2-4.54,12.7-10.34,12.62-6.81-.1-10.7-6.34-10.43-13.7.24-6.62,4.49-11.96,10.56-11.96s10.25,5.48,10.22,13.03Z"/>
    <path d="M363.48,499.46c-.04,8.35-4.59,13.45-11.81,12.54-5.2-.66-9.05-6.73-8.8-13.57.21-5.83,4.43-11.28,8.71-11.76,7.61-.85,11.95,4.24,11.9,12.8Z"/>
    <path d="M318.09,488.12c4.91.64,6.63,18.51,1.17,21.93-2.4,1.51-7.73,1.54-12.47,1.48l.02-24.38c4.05.27,8.35.6,11.29.98Z"/>
    <path d="M248.01,499.62c-.06,6.86-4.31,12.66-10.35,12.56s-10.11-5.49-10.39-12.02,3.44-12.72,8.37-13.46c7.73-1.16,12.45,4.31,12.37,12.93Z"/>
    <path d="M275.4,557.68c.2,4.28-1.59,10.12-3.83,12.32s-9.18,2.42-11.99.54c-2.64-1.76-4.99-7.94-4.91-11.88.13-6.11,4.42-11.52,8.97-12.01,5.84-.63,11.38,2.84,11.76,11.03Z"/>
    <path d="M1663.23,1162.26c1.38.68,2.69,5.67,1.39,6.23s-5.03,1.92-6.43,1.88l-6.85-.16c-1.77-.04-1.79-6.61-.63-7.94,1.94-2.23,9.7-1.4,12.52-.02Z"/>
    <path d="M1703.81,1221.56c1.25.28,3.86,5.1,2.91,5.95-1.27,1.12-4.54,2.95-6.24,2.9l-7.33-.23c-1.81-.06-2.21-6.39-.95-7.69,1.86-1.91,8.86-1.55,11.61-.93Z"/>
    <path d="M1670.59,1233.65c-.19,6.82-4.32,12.22-9.62,12.49-6.2.31-10.83-5.16-11.12-11.89s3.36-13.06,9.24-13.61c6.66-.63,11.75,4.12,11.49,13.01Z"/>
    <path d="M1660.79,1291.68c.2,4.33-1.56,10.08-3.87,12.4-2.25,2.26-9.01,2.35-11.95.44-2.67-1.74-4.97-7.9-4.9-11.86.12-6.1,4.41-11.52,8.96-12.01,5.85-.62,11.37,2.85,11.75,11.02Z"/>
    <path d="M1627.44,1163.01c1.73,1.06.26,7.99-1.78,8.06l-8.56.29c-2.05.07-1.91-7.22-.92-9,1.23-2.21,7.97-1.35,11.25.65Z"/>
    <path d="M1069.68,1109.75c.41.88-1.49,3.95-2.37,3.82-1.35-.2-5.69-1.63-5.33-2.82l3.23-10.49,4.46,9.49Z"/>
    <path d="M1004.31,1097.4c1.36.11,3.91,5.57,2.89,6.41-1.36,1.12-4.52,2.67-6.27,2.6l-7.4-.29c-1.77-.07-1.12-4.75-.81-8.71,1.63-.02,8.73-.25,11.6,0Z"/>
    <path d="M968.23,1169.66c-.12,6.49-4.41,12.07-8.93,12.43-7.07.56-11.41-4.67-11.76-11.68s3.01-13.43,9.85-13.85c5.83-.36,11,4.59,10.84,13.09Z"/>
    <polygon points="951.85 1112.78 942.87 1112.94 947.31 1100.04 951.85 1112.78"/>
    <path d="M586.29,1385.64c1.2.03,3.4,4.6,2.59,5.47-1.07,1.16-4.54,3.59-6.06,3.42l-8.28-.92c-1.84-.2-1.28-8.31.57-8.26l11.17.29Z"/>
    <path d="M584.4,1517.66c-.12,6.53-4.4,12.05-8.94,12.43-7.08.6-11.38-4.66-11.75-11.69-.37-6.98,3.02-13.41,9.84-13.83,5.84-.36,11,4.59,10.84,13.09Z"/>
    <polygon points="679.56 1460.87 669.73 1461.09 674.67 1449.42 679.56 1460.87"/>
    <path d="M551.06,1387.32c1.38,1.23.33,7.22-1.52,7.42l-8.08.89c-2.22.24-2.94-6.91-1.85-9.23,1.15-2.44,8.81-1.44,11.46.92Z"/>
    <rect x="487.08" y="1345.9" width="277.07" height="228.5"/>
    <rect x="175.22" y="419.98" width="294.85" height="242.68"/>
    <rect x="837.31" y="298.64" width="517.82" height="242.68"/>
    <rect x="1564.15" y="1123.06" width="324.5" height="242.68"/>
    <rect x="864.49" y="1024.28" width="324.5" height="242.68"/>
    <path class="cls-1" d="M1340.12,1180.32c21.59-.47,15.01-8.96,15.01-8.96l-15.01,8.96Z"/>
    <polygon class="cls-1" points="1322.87 1165.64 1317.23 1175.84 1334.45 1180.13 1348.09 1180.13 1351.08 1161.05 1322.87 1165.64"/>
  </g>
  <polygon class="cls-1" points="1364.02 1094.39 1379.92 1094.35 1379.92 1085.77 1366.01 1080.79 1364.02 1094.39"/>
  <polygon class="cls-1" points="1325.2 1150.97 1355.13 1155.02 1350.08 1180.32 1322.87 1180.32 1325.2 1150.97"/>
  <polygon class="cls-1" points="1477.66 939.6 1521.97 981.89 1507.68 994.52 1434.69 956.04 1477.66 939.6"/>
</svg>